<?xml version="1.0" standalone="no"?>
<!DOCTYPE svg PUBLIC "-//W3C//DTD SVG 20010904//EN"
 "http://www.w3.org/TR/2001/REC-SVG-20010904/DTD/svg10.dtd">
<svg version="1.0" xmlns="http://www.w3.org/2000/svg"
 width="501.000000pt" height="501.000000pt" viewBox="0 0 501.000000 501.000000"
 preserveAspectRatio="xMidYMid meet">
<metadata>
Created by potrace 1.14, written by Peter Selinger 2001-2017
</metadata>
<g transform="translate(0.000000,501.000000) scale(0.100000,-0.100000)"
fill="#000000" stroke="none">
<path d="M2377 3903 c-3 -2 -29 -6 -58 -8 -53 -4 -102 -11 -106 -15 -2 -2 -6
-3 -10 -4 -5 -1 -42 -12 -83 -26 -41 -13 -78 -23 -82 -22 -5 1 -8 -3 -8 -8 0
-5 -6 -10 -13 -10 -7 0 -28 -11 -47 -25 -18 -13 -37 -22 -41 -19 -5 3 -9 1 -9
-3 0 -5 -27 -28 -60 -52 -50 -37 -143 -129 -185 -183 -91 -118 -127 -191 -127
-258 1 -28 4 -55 7 -60 4 -6 8 -21 11 -34 6 -37 33 -96 43 -96 6 0 13 -10 17
-22 7 -25 274 -298 291 -298 6 0 13 -7 17 -15 8 -21 75 -60 106 -61 14 -1 30
-2 37 -3 7 -1 10 -10 7 -23 -11 -51 -24 -474 -15 -492 3 -6 5 -19 7 -30 6 -71
23 -128 46 -157 18 -22 76 -51 88 -44 6 3 10 3 10 -2 0 -4 75 -7 168 -6 155 2
267 8 267 13 0 2 11 3 25 4 14 1 35 6 47 10 12 4 30 8 40 10 10 2 38 9 63 16
25 7 52 14 60 15 8 2 16 4 18 5 1 2 5 3 10 4 4 1 16 7 27 13 11 6 23 11 28 12
4 1 29 12 57 25 112 54 243 168 305 266 37 57 85 150 78 150 -3 0 0 7 7 15 7
8 9 15 5 15 -4 0 -3 6 3 13 6 6 15 35 20 62 6 28 13 61 17 75 11 39 16 79 19
151 2 36 6 71 10 77 3 5 4 17 0 25 -3 8 -7 43 -9 78 -5 93 -17 169 -26 175 -5
3 -9 15 -9 28 0 32 -40 140 -78 211 -69 128 -164 232 -296 323 -44 31 -83 56
-86 55 -3 0 -21 7 -40 17 -37 19 -161 60 -195 65 -11 2 -22 4 -25 6 -3 1 -9 3
-15 4 -5 1 -21 5 -35 8 -14 4 -38 9 -55 11 -16 2 -30 5 -30 6 0 5 -214 18
-218 13z m80 -998 c27 -37 -43 -138 -89 -130 -10 2 -18 1 -18 -3 0 -9 -67 -9
-75 0 -3 3 -22 2 -41 -2 -44 -10 -52 3 -20 35 14 14 22 25 19 25 -13 0 76 59
118 79 48 22 87 20 106 -4z"/>
<path d="M2397 1914 c-2 -2 -27 -6 -56 -9 -30 -3 -57 -8 -62 -11 -5 -3 -18 -7
-29 -9 -33 -6 -112 -48 -135 -71 -12 -12 -26 -23 -32 -25 -13 -5 -89 -117
-104 -154 -20 -49 -31 -97 -33 -137 0 -16 -3 -28 -6 -28 -3 0 -4 -15 -3 -32 1
-18 2 -33 4 -33 1 0 3 -16 4 -35 2 -19 4 -35 5 -35 2 0 6 -17 14 -62 3 -18 10
-42 15 -55 5 -13 9 -27 9 -33 2 -19 45 -105 54 -105 4 0 8 -6 8 -12 1 -47 178
-167 270 -183 8 -2 26 -6 40 -10 25 -7 204 -10 248 -4 12 2 22 7 22 12 0 5 9
7 20 4 11 -3 20 -1 20 4 0 5 3 8 8 7 4 0 25 7 47 17 73 32 195 176 209 247 2
7 8 26 15 42 6 16 9 31 7 34 -3 2 -1 13 5 24 13 25 18 173 7 218 -5 19 -10 42
-12 51 -2 8 -11 32 -20 52 -8 21 -16 41 -17 45 -2 4 -13 18 -26 32 -13 14 -23
28 -23 33 0 9 -102 107 -111 107 -4 0 -14 6 -21 13 -15 13 -66 40 -113 58 -31
12 -36 13 -95 23 -19 3 -56 9 -82 14 -26 5 -49 8 -51 6z"/>
<path d="M4110 200 l0 -100 400 0 400 0 0 100 0 100 -400 0 -400 0 0 -100z
m540 -30 c0 -5 -4 -10 -10 -10 -5 0 -10 5 -10 10 0 6 5 10 10 10 6 0 10 -4 10
-10z"/>
</g>
</svg>
